<?xml version="1.0" encoding="UTF-8" standalone="no"?>
<!-- Generator: Adobe Illustrator 14.0.0, SVG Export Plug-In . SVG Version: 6.00 Build 43363)  -->

<svg
   xmlns:osb="http://www.openswatchbook.org/uri/2009/osb"
   xmlns:dc="http://purl.org/dc/elements/1.1/"
   xmlns:cc="http://creativecommons.org/ns#"
   xmlns:rdf="http://www.w3.org/1999/02/22-rdf-syntax-ns#"
   xmlns:svg="http://www.w3.org/2000/svg"
   xmlns="http://www.w3.org/2000/svg"
   xmlns:xlink="http://www.w3.org/1999/xlink"
   xmlns:sodipodi="http://sodipodi.sourceforge.net/DTD/sodipodi-0.dtd"
   xmlns:inkscape="http://www.inkscape.org/namespaces/inkscape"
   version="1.1"
   id="Ebene_1"
   x="0px"
   y="0px"
   width="1000"
   height="300"
   viewBox="0 0 1000 300"
   enable-background="new 0 0 1002 600"
   xml:space="preserve"
   sodipodi:docname="logo.svg"
   inkscape:export-filename="/home/d00p/CloudStation/Projekte/Froxlor_2013/SRC/templates/Sparkle2/assets/img/logo.svg.png"
   inkscape:export-xdpi="96"
   inkscape:export-ydpi="96"
   inkscape:version="0.92.3 (5aff6ba, 2018-11-25)"><metadata
   id="metadata4134"><rdf:RDF><cc:Work
       rdf:about=""><dc:format>image/svg+xml</dc:format><dc:type
         rdf:resource="http://purl.org/dc/dcmitype/StillImage" /><dc:title></dc:title></cc:Work></rdf:RDF></metadata><defs
   id="defs4132"><linearGradient
     inkscape:collect="always"
     id="linearGradient6485"><stop
       style="stop-color:#1871a2;stop-opacity:1;"
       offset="0"
       id="stop6481" /><stop
       style="stop-color:#62c8f4;stop-opacity:1"
       offset="1"
       id="stop6483" /></linearGradient><linearGradient
     id="linearGradient5011"
     osb:paint="solid"><stop
       style="stop-color:#0f3e4e;stop-opacity:1;"
       offset="0"
       id="stop5009" /></linearGradient><linearGradient
     inkscape:collect="always"
     id="linearGradient4964"
     osb:paint="gradient"><stop
       style="stop-color:#000000;stop-opacity:1;"
       offset="0"
       id="stop4960" /><stop
       style="stop-color:#000000;stop-opacity:0;"
       offset="1"
       id="stop4962" /></linearGradient><linearGradient
     inkscape:collect="always"
     xlink:href="#linearGradient6485"
     id="linearGradient6489"
     gradientUnits="userSpaceOnUse"
     x1="177.24966"
     y1="548.35663"
     x2="178.17436"
     y2="307.75949"
     gradientTransform="translate(-2.4478827,-276.33713)" /></defs><sodipodi:namedview
   pagecolor="#ffffff"
   bordercolor="#666666"
   borderopacity="1"
   objecttolerance="10"
   gridtolerance="10"
   guidetolerance="10"
   inkscape:pageopacity="0"
   inkscape:pageshadow="2"
   inkscape:window-width="2495"
   inkscape:window-height="1416"
   id="namedview4130"
   showgrid="false"
   inkscape:zoom="1.2255489"
   inkscape:cx="465.27088"
   inkscape:cy="202.35508"
   inkscape:window-x="65"
   inkscape:window-y="24"
   inkscape:window-maximized="1"
   inkscape:current-layer="Ebene_1"
   showborder="true"
   inkscape:showpageshadow="false" />









<path
   d="M 68.779117,117.80787 140.19712,46.390866 c 19.526,-19.526 51.185,-19.526 70.711,0 l 71.418,71.417004 c 19.526,19.526 19.526,51.185 0,70.711 l -71.418,71.417 c -19.526,19.526 -51.184,19.526 -70.711,0 l -71.418003,-71.417 c -19.526,-19.527 -19.526,-51.185 0,-70.711 z"
   id="path4111"
   style="clip-rule:evenodd;fill:url(#linearGradient6489);fill-opacity:1;fill-rule:evenodd;stroke:none;stroke-opacity:1"
   inkscape:connector-curvature="0" />
<path
   d="m 201.37212,277.67787 c 0,0 0.286,-18.944 0.576,-27.459 0.29,-8.515 0.118,-20.425 3.645,-35.915 3.527,-15.49 3.656,-20.482 11.943,-32.001 9.906,-13.77 17.168,-22.176 16.963,-38.397 -0.199,-15.756 -11.204,-34.233 -19.685,-43.990004 -8.481,-9.757 -19.045,-16.44 -20.948,-15.933 -1.903,0.506 -1.585,5.381 -1.585,5.381 0,0 9.584,37.405004 9.926,41.973004 0.32,4.272 1.238,14.199 -23.346,21.488 -8.078,2.396 -15.236,2.7 -23.465,1.469 -8.229,-1.231 -11.219,-7.913 -11.219,-7.913 0,0 -9.117,-41.823 -9.37,-42.774 -0.253,-0.952 -2.186,-6.261004 -4.9,-5.770004 -2.714,0.492 -9.926,18.939004 -11.53,31.711004 -1.668,13.281 -2.151,29.176 3.448,41.179 5.599,12.004 13.587,19.046 21.384,29.196 7.797,10.15 7.23,26.505 7.23,26.505 l -0.035,16.906 -0.604,33.396 z"
   id="path4113"
   inkscape:connector-curvature="0"
   style="clip-rule:evenodd;fill:#ffffff;fill-rule:evenodd;fill-opacity:1" />
<path
   d="m 332.93812,205.49387 c 0,2.916 2.229,5.145 5.145,5.145 h 18.694 c 2.916,0 5.145,-2.229 5.145,-5.145 v -52.137 h 30.356 c 2.916,0 5.146,-2.229 5.146,-5.145 v -9.947 c 0,-2.916 -2.23,-5.145 -5.146,-5.145 h -30.356 v -1.372 c 0,-18.522 4.288,-22.981 26.754,-22.981 4.459,0 7.718,1.372 11.491,1.372 h 3.087 c 2.916,0 5.145,-2.229 5.145,-5.146 v -9.261004 c 0,-2.573 -2.229,-4.631 -5.145,-5.145 -5.146,-1.029 -14.578,-1.715 -22.295,-1.715 -36.016,0 -48.021,12.005004 -48.021,42.876004 z"
   id="path4115"
   style="fill:#0f3e4e;fill-opacity:1"
   inkscape:connector-curvature="0" />
<path
   d="m 486.61412,122.31487 c 0,-2.916 -2.229,-5.146 -5.145,-5.146 -18.865,0 -27.612,5.146 -37.216,12.177 v -5.316 c 0,-2.916 -2.229,-5.145 -5.145,-5.145 h -18.694 c -2.916,0 -5.145,2.229 -5.145,5.145 v 81.464 c 0,2.916 2.229,5.145 5.145,5.145 h 18.694 c 2.916,0 5.145,-2.229 5.145,-5.145 v -53.509 c 6.174,-7.375 13.034,-12.348 21.609,-12.348 4.459,0 8.918,0.514 12.863,0.514 h 2.744 c 2.916,0 5.145,-2.229 5.145,-5.145 z"
   id="path4117"
   style="fill:#0f3e4e;fill-opacity:1"
   inkscape:connector-curvature="0" />
<path
   d="m 544.07612,193.31687 c -14.578,0 -21.609,-8.404 -21.609,-28.641 0,-20.237 7.032,-28.469 21.609,-28.469 14.578,0 21.609,8.232 21.609,28.469 0,20.237 -7.03,28.641 -21.609,28.641 z m 0,-76.147 c -32.414,0 -50.593,15.95 -50.593,47.506 0,31.557 18.179,47.678 50.593,47.678 32.414,0 50.594,-16.122 50.594,-47.678 0,-31.556 -18.18,-47.506 -50.594,-47.506 z"
   id="path4119"
   style="fill:#0f3e4e;fill-opacity:1"
   inkscape:connector-curvature="0" />
<path
   d="m 639.44612,126.25987 c -3.087,-4.63 -6.689,-7.375 -13.035,-7.375 h -18.179 c -4.116,0 -4.802,4.116 -2.572,7.375 l 27.269,38.417 -29.155,38.588 c -2.401,3.087 -1.543,7.375 2.572,7.375 h 17.836 c 6.346,0 9.776,-2.916 13.034,-7.375 l 16.122,-21.781 16.121,21.781 c 3.259,4.459 6.688,7.375 13.034,7.375 h 17.836 c 4.116,0 4.974,-4.288 2.572,-7.375 l -29.155,-38.588 27.269,-38.417 c 2.229,-3.259 1.543,-7.375 -2.573,-7.375 h -18.179 c -6.346,0 -9.947,2.744 -13.034,7.375 l -13.892,21.095 z"
   id="path4121"
   style="fill:#0f3e4e;fill-opacity:1"
   inkscape:connector-curvature="0" />
<path
   d="m 740.98712,210.63887 c 2.916,0 5.145,-2.229 5.145,-5.145 V 95.731866 c 0,-2.916 -2.229,-5.145 -5.145,-5.145 h -18.694 c -2.916,0 -5.145,2.229 -5.145,5.145 V 205.49387 c 0,2.916 2.229,5.145 5.145,5.145 z"
   id="path4123"
   style="fill:#0f3e4e;fill-opacity:1"
   inkscape:connector-curvature="0" />
<path
   d="m 812.16512,193.31687 c -14.578,0 -21.609,-8.404 -21.609,-28.641 0,-20.237 7.032,-28.469 21.609,-28.469 14.577,0 21.609,8.232 21.609,28.469 0,20.237 -7.032,28.641 -21.609,28.641 z m 0,-76.147 c -32.414,0 -50.593,15.95 -50.593,47.506 0,31.557 18.179,47.678 50.593,47.678 32.414,0 50.593,-16.122 50.593,-47.678 0,-31.556 -18.179,-47.506 -50.593,-47.506 z"
   id="path4125"
   style="fill:#0f3e4e;fill-opacity:1"
   inkscape:connector-curvature="0" />
<path
   d="m 949.55212,122.31487 c 0,-2.916 -2.229,-5.146 -5.145,-5.146 -18.865,0 -27.612,5.146 -37.216,12.177 v -5.316 c 0,-2.916 -2.229,-5.145 -5.145,-5.145 h -18.694 c -2.916,0 -5.145,2.229 -5.145,5.145 v 81.464 c 0,2.916 2.229,5.145 5.145,5.145 h 18.694 c 2.916,0 5.145,-2.229 5.145,-5.145 v -53.509 c 6.174,-7.375 13.034,-12.348 21.61,-12.348 4.459,0 8.918,0.514 12.862,0.514 h 2.744 c 2.916,0 5.145,-2.229 5.145,-5.145 z"
   id="path4127"
   style="fill:#0f3e4e;fill-opacity:1"
   inkscape:connector-curvature="0" />
</svg>